%TF.GenerationSoftware,Altium Limited,Altium Designer,19.1.9 (167)*%
G04 Layer_Color=0*
%FSLAX26Y26*%
%MOIN*%
%TF.FileFunction,Plated,1,2,PTH,Drill*%
%TF.Part,Single*%
G01*
G75*
%TA.AperFunction,ComponentDrill*%
%ADD72C,0.079921*%
%ADD73C,0.033465*%
%ADD74C,0.033465*%
%TA.AperFunction,OtherDrill,Pad Free-6 (540mil,700mil)*%
%ADD75C,0.030000*%
%TA.AperFunction,ComponentDrill*%
%ADD76C,0.035433*%
%ADD77C,0.027559*%
%ADD78C,0.027559*%
%ADD79C,0.051181*%
%ADD80C,0.051181*%
%ADD81C,0.027560*%
%TA.AperFunction,ViaDrill,NotFilled*%
%ADD82C,0.028000*%
D72*
X388189Y2350000D02*
D03*
X544095D02*
D03*
X700000D02*
D03*
D73*
X2835000Y980000D02*
D03*
X2535000D02*
D03*
X2380000Y1400000D02*
D03*
X2680000D02*
D03*
X3555000Y1425000D02*
D03*
X3855000D02*
D03*
X3625000Y615000D02*
D03*
X3925000D02*
D03*
Y475000D02*
D03*
X3625000D02*
D03*
D74*
X1460000Y1575000D02*
D03*
Y1275000D02*
D03*
X1455000Y800000D02*
D03*
Y500000D02*
D03*
X1125000Y1575000D02*
D03*
Y1275000D02*
D03*
X1130000Y800000D02*
D03*
Y500000D02*
D03*
D75*
X540000Y700000D02*
D03*
D76*
X805000Y1065000D02*
D03*
Y965000D02*
D03*
Y865000D02*
D03*
X630000Y1065000D02*
D03*
Y965000D02*
D03*
Y865000D02*
D03*
D77*
X755000Y155000D02*
D03*
X455000D02*
D03*
X760000Y1825000D02*
D03*
X460000D02*
D03*
D78*
X195000Y640000D02*
D03*
Y340000D02*
D03*
X945000Y2375000D02*
D03*
Y2675000D02*
D03*
X1175000Y2375000D02*
D03*
Y2675000D02*
D03*
X205000Y1405000D02*
D03*
Y1705000D02*
D03*
D79*
X3258150Y155000D02*
D03*
X3455000D02*
D03*
X3651850D02*
D03*
X3061300D02*
D03*
X2864450D02*
D03*
X2121850Y160000D02*
D03*
X1925000D02*
D03*
X1728150D02*
D03*
X2318700D02*
D03*
D80*
X2515550D02*
D03*
D81*
X529290Y1389290D02*
D03*
X670710D02*
D03*
Y1530710D02*
D03*
X529290D02*
D03*
X500000Y1460000D02*
D03*
X700000D02*
D03*
X600000Y1560000D02*
D03*
Y1360000D02*
D03*
D82*
X1690000Y970000D02*
D03*
X290000Y765000D02*
D03*
X3415000Y2010000D02*
D03*
X2725000Y1220000D02*
D03*
X3565000Y1225000D02*
D03*
X290000Y1205000D02*
D03*
X1045000Y890000D02*
D03*
X2930000Y1225000D02*
D03*
X3615000Y1995000D02*
D03*
X3455000Y1225000D02*
D03*
X2335000Y715000D02*
D03*
X700000Y2125000D02*
D03*
X545000D02*
D03*
X390000D02*
D03*
%TF.MD5,7f3fe7e8f1825df53c148db3719115af*%
M02*
