%TF.GenerationSoftware,Altium Limited,Altium Designer,19.1.9 (167)*%
G04 Layer_Color=2752767*
%FSLAX26Y26*%
%MOIN*%
%TF.FileFunction,Drawing*%
%TF.Part,Single*%
G01*
G75*
%TA.AperFunction,NonConductor*%
%ADD84C,0.005000*%
%ADD85C,0.006667*%
D84*
X368189Y2330000D02*
Y2370000D01*
X408189D01*
Y2330000D01*
X368189D01*
X524095D02*
Y2370000D01*
X564095D01*
Y2330000D01*
X524095D01*
X680000D02*
Y2370000D01*
X720000D01*
Y2330000D01*
X680000D01*
X540000Y680000D02*
X520000Y720000D01*
X560000D01*
X540000Y680000D01*
X805000Y1045000D02*
X815000Y1055000D01*
X825000D01*
X815000Y1065000D01*
X825000Y1075000D01*
X815000D01*
X805000Y1085000D01*
X795000Y1075000D01*
X785000D01*
X795000Y1065000D01*
X785000Y1055000D01*
X795000D01*
X805000Y1045000D01*
Y945000D02*
X815000Y955000D01*
X825000D01*
X815000Y965000D01*
X825000Y975000D01*
X815000D01*
X805000Y985000D01*
X795000Y975000D01*
X785000D01*
X795000Y965000D01*
X785000Y955000D01*
X795000D01*
X805000Y945000D01*
Y845000D02*
X815000Y855000D01*
X825000D01*
X815000Y865000D01*
X825000Y875000D01*
X815000D01*
X805000Y885000D01*
X795000Y875000D01*
X785000D01*
X795000Y865000D01*
X785000Y855000D01*
X795000D01*
X805000Y845000D01*
X630000Y1045000D02*
X640000Y1055000D01*
X650000D01*
X640000Y1065000D01*
X650000Y1075000D01*
X640000D01*
X630000Y1085000D01*
X620000Y1075000D01*
X610000D01*
X620000Y1065000D01*
X610000Y1055000D01*
X620000D01*
X630000Y1045000D01*
Y945000D02*
X640000Y955000D01*
X650000D01*
X640000Y965000D01*
X650000Y975000D01*
X640000D01*
X630000Y985000D01*
X620000Y975000D01*
X610000D01*
X620000Y965000D01*
X610000Y955000D01*
X620000D01*
X630000Y945000D01*
Y845000D02*
X640000Y855000D01*
X650000D01*
X640000Y865000D01*
X650000Y875000D01*
X640000D01*
X630000Y885000D01*
X620000Y875000D01*
X610000D01*
X620000Y865000D01*
X610000Y855000D01*
X620000D01*
X630000Y845000D01*
X735000Y135000D02*
X745000Y155000D01*
X735000Y175000D01*
X755000Y165000D01*
X775000Y175000D01*
X765000Y155000D01*
X775000Y135000D01*
X755000Y145000D01*
X735000Y135000D01*
X435000D02*
X445000Y155000D01*
X435000Y175000D01*
X455000Y165000D01*
X475000Y175000D01*
X465000Y155000D01*
X475000Y135000D01*
X455000Y145000D01*
X435000Y135000D01*
X175000Y620000D02*
X185000Y640000D01*
X175000Y660000D01*
X195000Y650000D01*
X215000Y660000D01*
X205000Y640000D01*
X215000Y620000D01*
X195000Y630000D01*
X175000Y620000D01*
Y320000D02*
X185000Y340000D01*
X175000Y360000D01*
X195000Y350000D01*
X215000Y360000D01*
X205000Y340000D01*
X215000Y320000D01*
X195000Y330000D01*
X175000Y320000D01*
X925000Y2355000D02*
X935000Y2375000D01*
X925000Y2395000D01*
X945000Y2385000D01*
X965000Y2395000D01*
X955000Y2375000D01*
X965000Y2355000D01*
X945000Y2365000D01*
X925000Y2355000D01*
Y2655000D02*
X935000Y2675000D01*
X925000Y2695000D01*
X945000Y2685000D01*
X965000Y2695000D01*
X955000Y2675000D01*
X965000Y2655000D01*
X945000Y2665000D01*
X925000Y2655000D01*
X1155000Y2355000D02*
X1165000Y2375000D01*
X1155000Y2395000D01*
X1175000Y2385000D01*
X1195000Y2395000D01*
X1185000Y2375000D01*
X1195000Y2355000D01*
X1175000Y2365000D01*
X1155000Y2355000D01*
Y2655000D02*
X1165000Y2675000D01*
X1155000Y2695000D01*
X1175000Y2685000D01*
X1195000Y2695000D01*
X1185000Y2675000D01*
X1195000Y2655000D01*
X1175000Y2665000D01*
X1155000Y2655000D01*
X740000Y1805000D02*
X750000Y1825000D01*
X740000Y1845000D01*
X760000Y1835000D01*
X780000Y1845000D01*
X770000Y1825000D01*
X780000Y1805000D01*
X760000Y1815000D01*
X740000Y1805000D01*
X440000D02*
X450000Y1825000D01*
X440000Y1845000D01*
X460000Y1835000D01*
X480000Y1845000D01*
X470000Y1825000D01*
X480000Y1805000D01*
X460000Y1815000D01*
X440000Y1805000D01*
X185000Y1385000D02*
X195000Y1405000D01*
X185000Y1425000D01*
X205000Y1415000D01*
X225000Y1425000D01*
X215000Y1405000D01*
X225000Y1385000D01*
X205000Y1395000D01*
X185000Y1385000D01*
Y1685000D02*
X195000Y1705000D01*
X185000Y1725000D01*
X205000Y1715000D01*
X225000Y1725000D01*
X215000Y1705000D01*
X225000Y1685000D01*
X205000Y1695000D01*
X185000Y1685000D01*
X3248150Y145000D02*
Y135000D01*
X3268150D01*
Y145000D01*
X3278150D01*
Y165000D01*
X3268150D01*
Y175000D01*
X3248150D01*
Y165000D01*
X3238150D01*
Y145000D01*
X3248150D01*
X3445000D02*
Y135000D01*
X3465000D01*
Y145000D01*
X3475000D01*
Y165000D01*
X3465000D01*
Y175000D01*
X3445000D01*
Y165000D01*
X3435000D01*
Y145000D01*
X3445000D01*
X3641850D02*
Y135000D01*
X3661850D01*
Y145000D01*
X3671850D01*
Y165000D01*
X3661850D01*
Y175000D01*
X3641850D01*
Y165000D01*
X3631850D01*
Y145000D01*
X3641850D01*
X3051300D02*
Y135000D01*
X3071300D01*
Y145000D01*
X3081300D01*
Y165000D01*
X3071300D01*
Y175000D01*
X3051300D01*
Y165000D01*
X3041300D01*
Y145000D01*
X3051300D01*
X2854450D02*
Y135000D01*
X2874450D01*
Y145000D01*
X2884450D01*
Y165000D01*
X2874450D01*
Y175000D01*
X2854450D01*
Y165000D01*
X2844450D01*
Y145000D01*
X2854450D01*
X2111850Y150000D02*
Y140000D01*
X2131850D01*
Y150000D01*
X2141850D01*
Y170000D01*
X2131850D01*
Y180000D01*
X2111850D01*
Y170000D01*
X2101850D01*
Y150000D01*
X2111850D01*
X1915000D02*
Y140000D01*
X1935000D01*
Y150000D01*
X1945000D01*
Y170000D01*
X1935000D01*
Y180000D01*
X1915000D01*
Y170000D01*
X1905000D01*
Y150000D01*
X1915000D01*
X1718150D02*
Y140000D01*
X1738150D01*
Y150000D01*
X1748150D01*
Y170000D01*
X1738150D01*
Y180000D01*
X1718150D01*
Y170000D01*
X1708150D01*
Y150000D01*
X1718150D01*
X2308700D02*
Y140000D01*
X2328700D01*
Y150000D01*
X2338700D01*
Y170000D01*
X2328700D01*
Y180000D01*
X2308700D01*
Y170000D01*
X2298700D01*
Y150000D01*
X2308700D01*
X2505550D02*
Y140000D01*
X2525550D01*
Y150000D01*
X2535550D01*
Y170000D01*
X2525550D01*
Y180000D01*
X2505550D01*
Y170000D01*
X2495550D01*
Y150000D01*
X2505550D01*
X509290Y1369290D02*
X519290D01*
X529290Y1379290D01*
X539290Y1369290D01*
X549290D01*
Y1379290D01*
X539290Y1389290D01*
X549290Y1399290D01*
Y1409290D01*
X539290D01*
X529290Y1399290D01*
X519290Y1409290D01*
X509290D01*
Y1399290D01*
X519290Y1389290D01*
X509290Y1379290D01*
Y1369290D01*
X650710D02*
X660710D01*
X670710Y1379290D01*
X680710Y1369290D01*
X690710D01*
Y1379290D01*
X680710Y1389290D01*
X690710Y1399290D01*
Y1409290D01*
X680710D01*
X670710Y1399290D01*
X660710Y1409290D01*
X650710D01*
Y1399290D01*
X660710Y1389290D01*
X650710Y1379290D01*
Y1369290D01*
Y1510710D02*
X660710D01*
X670710Y1520710D01*
X680710Y1510710D01*
X690710D01*
Y1520710D01*
X680710Y1530710D01*
X690710Y1540710D01*
Y1550710D01*
X680710D01*
X670710Y1540710D01*
X660710Y1550710D01*
X650710D01*
Y1540710D01*
X660710Y1530710D01*
X650710Y1520710D01*
Y1510710D01*
X509290D02*
X519290D01*
X529290Y1520710D01*
X539290Y1510710D01*
X549290D01*
Y1520710D01*
X539290Y1530710D01*
X549290Y1540710D01*
Y1550710D01*
X539290D01*
X529290Y1540710D01*
X519290Y1550710D01*
X509290D01*
Y1540710D01*
X519290Y1530710D01*
X509290Y1520710D01*
Y1510710D01*
X480000Y1440000D02*
X490000D01*
X500000Y1450000D01*
X510000Y1440000D01*
X520000D01*
Y1450000D01*
X510000Y1460000D01*
X520000Y1470000D01*
Y1480000D01*
X510000D01*
X500000Y1470000D01*
X490000Y1480000D01*
X480000D01*
Y1470000D01*
X490000Y1460000D01*
X480000Y1450000D01*
Y1440000D01*
X680000D02*
X690000D01*
X700000Y1450000D01*
X710000Y1440000D01*
X720000D01*
Y1450000D01*
X710000Y1460000D01*
X720000Y1470000D01*
Y1480000D01*
X710000D01*
X700000Y1470000D01*
X690000Y1480000D01*
X680000D01*
Y1470000D01*
X690000Y1460000D01*
X680000Y1450000D01*
Y1440000D01*
X580000Y1540000D02*
X590000D01*
X600000Y1550000D01*
X610000Y1540000D01*
X620000D01*
Y1550000D01*
X610000Y1560000D01*
X620000Y1570000D01*
Y1580000D01*
X610000D01*
X600000Y1570000D01*
X590000Y1580000D01*
X580000D01*
Y1570000D01*
X590000Y1560000D01*
X580000Y1550000D01*
Y1540000D01*
Y1340000D02*
X590000D01*
X600000Y1350000D01*
X610000Y1340000D01*
X620000D01*
Y1350000D01*
X610000Y1360000D01*
X620000Y1370000D01*
Y1380000D01*
X610000D01*
X600000Y1370000D01*
X590000Y1380000D01*
X580000D01*
Y1370000D01*
X590000Y1360000D01*
X580000Y1350000D01*
Y1340000D01*
X3880000Y100000D02*
X3900000Y120000D01*
X3920000Y100000D01*
X3900000Y80000D01*
X3880000Y100000D01*
Y2900000D02*
X3900000Y2920000D01*
X3920000Y2900000D01*
X3900000Y2880000D01*
X3880000Y2900000D01*
X80000Y100000D02*
X100000Y120000D01*
X120000Y100000D01*
X100000Y80000D01*
X80000Y100000D01*
Y2900000D02*
X100000Y2920000D01*
X120000Y2900000D01*
X100000Y2880000D01*
X80000Y2900000D01*
X1670000Y950000D02*
Y990000D01*
X1710000D01*
Y950000D01*
X1670000D01*
X1678000Y958000D02*
Y982000D01*
X1702000D01*
Y958000D01*
X1678000D01*
X270000Y745000D02*
Y785000D01*
X310000D01*
Y745000D01*
X270000D01*
X278000Y753000D02*
Y777000D01*
X302000D01*
Y753000D01*
X278000D01*
X3395000Y1990000D02*
Y2030000D01*
X3435000D01*
Y1990000D01*
X3395000D01*
X3403000Y1998000D02*
Y2022000D01*
X3427000D01*
Y1998000D01*
X3403000D01*
X2705000Y1200000D02*
Y1240000D01*
X2745000D01*
Y1200000D01*
X2705000D01*
X2713000Y1208000D02*
Y1232000D01*
X2737000D01*
Y1208000D01*
X2713000D01*
X3545000Y1205000D02*
Y1245000D01*
X3585000D01*
Y1205000D01*
X3545000D01*
X3553000Y1213000D02*
Y1237000D01*
X3577000D01*
Y1213000D01*
X3553000D01*
X270000Y1185000D02*
Y1225000D01*
X310000D01*
Y1185000D01*
X270000D01*
X278000Y1193000D02*
Y1217000D01*
X302000D01*
Y1193000D01*
X278000D01*
X1025000Y870000D02*
Y910000D01*
X1065000D01*
Y870000D01*
X1025000D01*
X1033000Y878000D02*
Y902000D01*
X1057000D01*
Y878000D01*
X1033000D01*
X2910000Y1205000D02*
Y1245000D01*
X2950000D01*
Y1205000D01*
X2910000D01*
X2918000Y1213000D02*
Y1237000D01*
X2942000D01*
Y1213000D01*
X2918000D01*
X3595000Y1975000D02*
Y2015000D01*
X3635000D01*
Y1975000D01*
X3595000D01*
X3603000Y1983000D02*
Y2007000D01*
X3627000D01*
Y1983000D01*
X3603000D01*
X3435000Y1205000D02*
Y1245000D01*
X3475000D01*
Y1205000D01*
X3435000D01*
X3443000Y1213000D02*
Y1237000D01*
X3467000D01*
Y1213000D01*
X3443000D01*
X2315000Y695000D02*
Y735000D01*
X2355000D01*
Y695000D01*
X2315000D01*
X2323000Y703000D02*
Y727000D01*
X2347000D01*
Y703000D01*
X2323000D01*
X680000Y2105000D02*
Y2145000D01*
X720000D01*
Y2105000D01*
X680000D01*
X688000Y2113000D02*
Y2137000D01*
X712000D01*
Y2113000D01*
X688000D01*
X525000Y2105000D02*
Y2145000D01*
X565000D01*
Y2105000D01*
X525000D01*
X533000Y2113000D02*
Y2137000D01*
X557000D01*
Y2113000D01*
X533000D01*
X370000Y2105000D02*
Y2145000D01*
X410000D01*
Y2105000D01*
X370000D01*
X378000Y2113000D02*
Y2137000D01*
X402000D01*
Y2113000D01*
X378000D01*
D85*
X2855000Y980000D02*
G03*
X2855000Y980000I-20000J0D01*
G01*
X2555000D02*
G03*
X2555000Y980000I-20000J0D01*
G01*
X2400000Y1400000D02*
G03*
X2400000Y1400000I-20000J0D01*
G01*
X2700000D02*
G03*
X2700000Y1400000I-20000J0D01*
G01*
X3575000Y1425000D02*
G03*
X3575000Y1425000I-20000J0D01*
G01*
X3875000D02*
G03*
X3875000Y1425000I-20000J0D01*
G01*
X3645000Y615000D02*
G03*
X3645000Y615000I-20000J0D01*
G01*
X3945000D02*
G03*
X3945000Y615000I-20000J0D01*
G01*
Y475000D02*
G03*
X3945000Y475000I-20000J0D01*
G01*
X3645000D02*
G03*
X3645000Y475000I-20000J0D01*
G01*
X1480000Y1575000D02*
G03*
X1480000Y1575000I-20000J0D01*
G01*
Y1275000D02*
G03*
X1480000Y1275000I-20000J0D01*
G01*
X1475000Y800000D02*
G03*
X1475000Y800000I-20000J0D01*
G01*
Y500000D02*
G03*
X1475000Y500000I-20000J0D01*
G01*
X1145000Y1575000D02*
G03*
X1145000Y1575000I-20000J0D01*
G01*
Y1275000D02*
G03*
X1145000Y1275000I-20000J0D01*
G01*
X1150000Y800000D02*
G03*
X1150000Y800000I-20000J0D01*
G01*
Y500000D02*
G03*
X1150000Y500000I-20000J0D01*
G01*
%TF.MD5,36cc46e685bca176518949bac7f369ce*%
M02*
