%TF.GenerationSoftware,Altium Limited,Altium Designer,19.1.9 (167)*%
G04 Layer_Color=16711935*
%FSLAX26Y26*%
%MOIN*%
%TF.FileFunction,Other,Mechanical_13*%
%TF.Part,Single*%
G01*
G75*
%TA.AperFunction,NonConductor*%
%ADD44C,0.003937*%
%ADD50C,0.003000*%
%ADD62C,0.000000*%
%ADD63C,0.001000*%
D44*
X3197992Y1042205D02*
G03*
X3197992Y1042205I-19685J0D01*
G01*
X1476299Y911535D02*
X1513701D01*
X1476299Y978465D02*
X1513701D01*
X1476299Y911535D02*
Y978465D01*
X1513701Y911535D02*
Y978465D01*
X2161299Y666535D02*
Y733465D01*
X2198701Y666535D02*
Y733465D01*
X2161299Y666535D02*
X2198701D01*
X2161299Y733465D02*
X2198701D01*
X2036299Y728465D02*
X2073701D01*
X2036299Y661535D02*
X2073701D01*
Y728465D01*
X2036299Y661535D02*
Y728465D01*
X1938701Y661535D02*
Y728465D01*
X1901299Y661535D02*
Y728465D01*
X1938701D01*
X1901299Y661535D02*
X1938701D01*
X3518465Y1131299D02*
Y1168701D01*
X3451535Y1131299D02*
Y1168701D01*
Y1131299D02*
X3518465D01*
X3451535Y1168701D02*
X3518465D01*
X3451535Y1313701D02*
X3518465D01*
X3451535Y1276299D02*
X3518465D01*
X3451535D02*
Y1313701D01*
X3518465Y1276299D02*
Y1313701D01*
X2731535Y1276299D02*
Y1313701D01*
X2798465Y1276299D02*
Y1313701D01*
X2731535D02*
X2798465D01*
X2731535Y1276299D02*
X2798465D01*
X2731535Y1131299D02*
X2798465D01*
X2731535Y1168701D02*
X2798465D01*
Y1131299D02*
Y1168701D01*
X2731535Y1131299D02*
Y1168701D01*
X1078465Y951299D02*
Y988701D01*
X1011535Y951299D02*
Y988701D01*
Y951299D02*
X1078465D01*
X1011535Y988701D02*
X1078465D01*
X1166300Y979448D02*
X1203700D01*
X1166300Y910552D02*
X1203700D01*
Y979448D01*
X1166300Y910552D02*
Y979448D01*
X1295552Y988700D02*
X1364448D01*
X1295552Y951300D02*
X1364448D01*
X1295552D02*
Y988700D01*
X1364448Y951300D02*
Y988700D01*
X3213741Y1007757D02*
Y1352245D01*
X3056261Y1007757D02*
Y1352245D01*
Y1007757D02*
X3213741D01*
X3056261Y1352245D02*
X3213741D01*
D50*
X1911296Y1034500D02*
X1944618Y1067823D01*
Y1034500D02*
X1911296Y1067823D01*
X1927957Y1034500D02*
Y1067823D01*
X1944618Y1051161D02*
X1911296D01*
D62*
X663000Y572000D02*
G03*
X663000Y572000I-3000J0D01*
G01*
X681500Y517000D02*
G03*
X681500Y493000I0J-12000D01*
G01*
D63*
X1923949Y1037000D02*
X1954949D01*
X1923949Y966500D02*
Y1037000D01*
Y966500D02*
X1954949D01*
Y1037000D01*
X2014500D02*
X2045500D01*
X2014500Y966500D02*
Y1037000D01*
Y966500D02*
X2045500D01*
Y1037000D01*
X2105051D02*
X2136051D01*
X2105051Y966500D02*
Y1037000D01*
Y966500D02*
X2136051D01*
Y1037000D01*
X1969000Y1183000D02*
X2091000D01*
Y1253500D01*
X1969000D02*
X2091000D01*
X1969000Y1183000D02*
Y1253500D01*
X2162000Y1037000D02*
Y1183000D01*
X1898000D02*
X2162000D01*
X1898000Y1037000D02*
Y1183000D01*
Y1037000D02*
X2162000D01*
X488500Y428001D02*
Y582001D01*
Y428001D02*
X681500D01*
Y582001D01*
X488500D02*
X681500D01*
%TF.MD5,1160675c7bdb5e5b16575fc4f2cf73c3*%
M02*
