%TF.GenerationSoftware,Altium Limited,Altium Designer,19.1.9 (167)*%
G04 Layer_Color=16711935*
%FSLAX26Y26*%
%MOIN*%
%TF.FileFunction,Other,Mechanical_1*%
%TF.Part,Single*%
G01*
G75*
%TA.AperFunction,NonConductor*%
%ADD64C,0.005906*%
D64*
X3035743Y1605777D02*
X3025248D01*
X3020000Y1600530D01*
Y1579539D01*
X3025248Y1574291D01*
X3035743D01*
X3040991Y1579539D01*
Y1600530D01*
X3035743Y1605777D01*
X3051486Y1563796D02*
Y1595282D01*
X3067229D01*
X3072477Y1590034D01*
Y1579539D01*
X3067229Y1574291D01*
X3051486D01*
X3082972Y1569044D02*
X3103962D01*
X3114458Y1605777D02*
Y1574291D01*
X3135448D01*
X3166934Y1605777D02*
X3145944D01*
Y1574291D01*
X3166934D01*
X3145944Y1590034D02*
X3156439D01*
X3177430Y1605777D02*
Y1574291D01*
X3193173D01*
X3198420Y1579539D01*
Y1600530D01*
X3193173Y1605777D01*
X3177430D01*
X3208915Y1569044D02*
X3229906D01*
X3261392Y1605777D02*
Y1574291D01*
X3245649D01*
X3240401Y1579539D01*
Y1590034D01*
X3245649Y1595282D01*
X3261392D01*
X3271887D02*
Y1574291D01*
Y1584787D01*
X3277135Y1590034D01*
X3282383Y1595282D01*
X3287630D01*
X3303373Y1574291D02*
X3313868D01*
X3308621D01*
Y1595282D01*
X3303373D01*
X3329611D02*
X3340107Y1574291D01*
X3350602Y1595282D01*
X3376840Y1574291D02*
X3366345D01*
X3361097Y1579539D01*
Y1590034D01*
X3366345Y1595282D01*
X3376840D01*
X3382088Y1590034D01*
Y1584787D01*
X3361097D01*
X3392583Y1595282D02*
Y1574291D01*
Y1584787D01*
X3397831Y1590034D01*
X3403079Y1595282D01*
X3408326D01*
%TF.MD5,d90c338231e2e70179d2c9ebeb9e81a5*%
M02*
