%TF.GenerationSoftware,Altium Limited,Altium Designer,19.1.9 (167)*%
G04 Layer_Color=32896*
%FSLAX26Y26*%
%MOIN*%
%TF.FileFunction,Other,Mechanical_4*%
%TF.Part,Single*%
G01*
G75*
%TA.AperFunction,NonConductor*%
%ADD45C,0.006000*%
%ADD49C,0.007812*%
D45*
X2521000Y2493000D02*
X3809000D01*
Y2155000D02*
Y2493000D01*
X2521000Y2155000D02*
X3809000D01*
X2521000D02*
Y2493000D01*
X2690000Y2020000D02*
X2715000Y2070000D01*
X2690000Y2020000D02*
X2740000D01*
X2715000Y2070000D02*
X2740000Y2020000D01*
X2521000Y2493000D02*
X3809000D01*
Y2155000D02*
Y2493000D01*
X2521000Y2155000D02*
X3809000D01*
X2521000D02*
Y2493000D01*
X2690000Y2020000D02*
X2715000Y2070000D01*
X2690000Y2020000D02*
X2740000D01*
X2715000Y2070000D02*
X2740000Y2020000D01*
D49*
X3830323Y2214586D02*
X3837352Y2218100D01*
X3847895Y2228644D01*
Y2154841D01*
X3930133Y2204043D02*
X3926618Y2193499D01*
X3919589Y2186470D01*
X3909046Y2182956D01*
X3905532D01*
X3894988Y2186470D01*
X3887959Y2193499D01*
X3884445Y2204043D01*
Y2207557D01*
X3887959Y2218100D01*
X3894988Y2225129D01*
X3905532Y2228644D01*
X3909046D01*
X3919589Y2225129D01*
X3926618Y2218100D01*
X3930133Y2204043D01*
Y2186470D01*
X3926618Y2168898D01*
X3919589Y2158355D01*
X3909046Y2154841D01*
X3902017D01*
X3891474Y2158355D01*
X3887959Y2165384D01*
X3833554Y2479559D02*
Y2483074D01*
X3837068Y2490102D01*
X3840583Y2493617D01*
X3847612Y2497131D01*
X3861669D01*
X3868698Y2493617D01*
X3872213Y2490102D01*
X3875727Y2483074D01*
Y2476045D01*
X3872213Y2469016D01*
X3865184Y2458473D01*
X3830039Y2423328D01*
X3879242D01*
X3916846Y2497131D02*
X3906303Y2493617D01*
X3899274Y2483074D01*
X3895759Y2465501D01*
Y2454958D01*
X3899274Y2437386D01*
X3906303Y2426843D01*
X3916846Y2423328D01*
X3923875D01*
X3934418Y2426843D01*
X3941447Y2437386D01*
X3944961Y2454958D01*
Y2465501D01*
X3941447Y2483074D01*
X3934418Y2493617D01*
X3923875Y2497131D01*
X3916846D01*
X3830323Y2214586D02*
X3837352Y2218100D01*
X3847895Y2228644D01*
Y2154841D01*
X3930133Y2204043D02*
X3926618Y2193499D01*
X3919589Y2186470D01*
X3909046Y2182956D01*
X3905532D01*
X3894988Y2186470D01*
X3887959Y2193499D01*
X3884445Y2204043D01*
Y2207557D01*
X3887959Y2218100D01*
X3894988Y2225129D01*
X3905532Y2228644D01*
X3909046D01*
X3919589Y2225129D01*
X3926618Y2218100D01*
X3930133Y2204043D01*
Y2186470D01*
X3926618Y2168898D01*
X3919589Y2158355D01*
X3909046Y2154841D01*
X3902017D01*
X3891474Y2158355D01*
X3887959Y2165384D01*
X3833554Y2479559D02*
Y2483074D01*
X3837068Y2490102D01*
X3840583Y2493617D01*
X3847612Y2497131D01*
X3861669D01*
X3868698Y2493617D01*
X3872213Y2490102D01*
X3875727Y2483074D01*
Y2476045D01*
X3872213Y2469016D01*
X3865184Y2458473D01*
X3830039Y2423328D01*
X3879242D01*
X3916846Y2497131D02*
X3906303Y2493617D01*
X3899274Y2483074D01*
X3895759Y2465501D01*
Y2454958D01*
X3899274Y2437386D01*
X3906303Y2426843D01*
X3916846Y2423328D01*
X3923875D01*
X3934418Y2426843D01*
X3941447Y2437386D01*
X3944961Y2454958D01*
Y2465501D01*
X3941447Y2483074D01*
X3934418Y2493617D01*
X3923875Y2497131D01*
X3916846D01*
%TF.MD5,ac8f50bc127de33dccf9e464549d7222*%
M02*
