%TF.GenerationSoftware,Altium Limited,Altium Designer,19.1.9 (167)*%
G04 Layer_Color=32768*
%FSLAX26Y26*%
%MOIN*%
%TF.FileFunction,Other,Mechanical_7*%
%TF.Part,Single*%
G01*
G75*
%TA.AperFunction,NonConductor*%
%ADD45C,0.006000*%
%ADD63C,0.001000*%
%ADD65C,0.002000*%
D45*
X780000Y1460000D02*
G03*
X780000Y1460000I-180000J0D01*
G01*
X580000Y1250000D02*
X620000D01*
Y1280000D01*
X580000Y1250000D02*
Y1280000D01*
D63*
X660000Y611299D02*
Y701799D01*
X610000Y611299D02*
Y701799D01*
X660000Y691799D02*
X670000Y686799D01*
Y696799D01*
X660000Y691799D02*
X670000Y696799D01*
X660000Y691799D02*
X710000D01*
X600000Y686799D02*
X610000Y691799D01*
X600000Y686799D02*
Y696799D01*
X610000Y691799D01*
X560000D02*
X610000D01*
X428500Y398701D02*
X510000D01*
X428500Y611299D02*
X510000D01*
X433500Y601299D02*
X438500Y611299D01*
X433500Y601299D02*
X443500D01*
X438500Y611299D02*
X443500Y601299D01*
X438500Y561299D02*
Y611299D01*
X433500Y408701D02*
X438500Y398701D01*
X433500Y408701D02*
X443500D01*
X438500Y398701D02*
X443500Y408701D01*
X438500Y398701D02*
Y448701D01*
X681500Y582001D02*
X796500D01*
X681500Y428001D02*
X796500D01*
X781500D02*
Y582001D01*
X786500Y572001D01*
X776500D02*
X781500Y582001D01*
X776500Y572001D02*
X786500D01*
X781500Y428001D02*
X786500Y438001D01*
X776500D02*
X781500Y428001D01*
X776500Y438001D02*
X786500D01*
X681500Y283701D02*
Y428001D01*
X488500Y283701D02*
Y428001D01*
Y298701D02*
X681500D01*
X671500Y303701D02*
X681500Y298701D01*
X671500Y293701D02*
X681500Y298701D01*
X671500Y293701D02*
Y303701D01*
X488500Y298701D02*
X498500Y303701D01*
X488500Y298701D02*
X498500Y293701D01*
Y303701D01*
D65*
X752000Y1460000D02*
G03*
X752000Y1460000I-152000J0D01*
G01*
%TF.MD5,375b36c71251b69993e0873d091c93a6*%
M02*
