M48
;Layer_Color=9474304
;FILE_FORMAT=2:5
INCH,LZ
;TYPE=PLATED
T1F00S00C0.02756
T2F00S00C0.02800
T3F00S00C0.03000
T4F00S00C0.03346
T5F00S00C0.03543
T6F00S00C0.05118
T7F00S00C0.07992
;TYPE=NON_PLATED
T8F00S00C0.11811
%
T01
X00195Y0034
Y0064
X00455Y00155
X00755
X0067071Y0138929
X007Y0146
X0067071Y0153071
X006Y0156
X0052929Y0153071
X005Y0146
X0052929Y0138929
X006Y0136
X00205Y01405
Y01705
X0046Y01825
X0076
X00945Y02375
X01175
Y02675
X00945
T02
X02725Y0122
X0293Y01225
X03455
X03565
X02335Y00715
X0169Y0097
X01045Y0089
X0029Y01205
X0039Y02125
X00545
X007
X03415Y0201
X03615Y01995
T03
X0054Y007
T04
X03925Y00475
Y00615
X03625
Y00475
X02835Y0098
X02535
X01455Y008
Y005
X0113
Y008
X01125Y01275
X0146
Y01575
X01125
X0238Y014
X0268
X03555Y01425
X03855
T05
X00805Y00865
Y00965
Y01065
X0063
Y00965
Y00865
T06
X0251555Y0016
X0286445Y00155
X030613
X0325815
X03455
X0365185
X023187Y0016
X0212185
X01925
X0172815
T07
X0038819Y0235
X0054409
X007
T08
X039Y001
X001
X039Y029
X001
M30
