%TF.GenerationSoftware,Altium Limited,Altium Designer,19.1.9 (167)*%
G04 Layer_Color=255*
%FSLAX26Y26*%
%MOIN*%
%TF.FileFunction,Pads,Top*%
%TF.Part,Single*%
G01*
G75*
%TA.AperFunction,SMDPad,CuDef*%
%ADD11R,0.035433X0.027559*%
%ADD12R,0.027559X0.035433*%
%ADD13R,0.033000X0.063000*%
%ADD14R,0.122000X0.063000*%
%ADD15C,0.067992*%
%ADD16R,0.280000X0.092992*%
%ADD17R,0.024000X0.061000*%
%ADD18R,0.052000X0.204000*%
%ADD19R,0.035433X0.031496*%
%ADD20R,0.031496X0.035433*%
G04:AMPARAMS|DCode=21|XSize=25.591mil|YSize=64.961mil|CornerRadius=1.919mil|HoleSize=0mil|Usage=FLASHONLY|Rotation=270.000|XOffset=0mil|YOffset=0mil|HoleType=Round|Shape=RoundedRectangle|*
%AMROUNDEDRECTD21*
21,1,0.025591,0.061122,0,0,270.0*
21,1,0.021752,0.064961,0,0,270.0*
1,1,0.003839,-0.030561,-0.010876*
1,1,0.003839,-0.030561,0.010876*
1,1,0.003839,0.030561,0.010876*
1,1,0.003839,0.030561,-0.010876*
%
%ADD21ROUNDEDRECTD21*%
%TA.AperFunction,ComponentPad*%
%ADD25C,0.121260*%
%ADD26C,0.055118*%
%TA.AperFunction,ViaPad*%
%ADD27C,0.060000*%
%TA.AperFunction,ComponentPad*%
%ADD28R,0.059055X0.059055*%
%ADD29C,0.059055*%
%ADD30C,0.047244*%
%ADD31C,0.070000*%
%ADD32C,0.047560*%
%TA.AperFunction,WasherPad*%
%ADD33C,0.060000*%
D11*
X1495000Y915472D02*
D03*
Y974528D02*
D03*
X2180000Y670472D02*
D03*
Y729528D02*
D03*
X2055000Y724528D02*
D03*
Y665472D02*
D03*
X1920000Y724528D02*
D03*
Y665472D02*
D03*
X2697598Y1605591D02*
D03*
Y1554409D02*
D03*
X2772402Y1580000D02*
D03*
X3872402Y904409D02*
D03*
Y955591D02*
D03*
X3797598Y930000D02*
D03*
X3577402Y904409D02*
D03*
Y955591D02*
D03*
X3502598Y930000D02*
D03*
X3472598Y1610591D02*
D03*
Y1559409D02*
D03*
X3547402Y1585000D02*
D03*
X2832402Y729409D02*
D03*
Y780591D02*
D03*
X2757598Y755000D02*
D03*
D12*
X3514528Y1150000D02*
D03*
X3455472D02*
D03*
Y1295000D02*
D03*
X3514528D02*
D03*
X2735472Y1295000D02*
D03*
X2794528D02*
D03*
Y1150000D02*
D03*
X2735472D02*
D03*
X1074527Y970000D02*
D03*
X1015472D02*
D03*
D13*
X1939449Y984000D02*
D03*
X2030000D02*
D03*
X2120551D02*
D03*
D14*
X2030000Y1236000D02*
D03*
D15*
X290000Y980000D02*
D03*
D16*
Y1074016D02*
D03*
Y885984D02*
D03*
D17*
X660000Y611299D02*
D03*
X610000D02*
D03*
X560000D02*
D03*
X510000D02*
D03*
Y398701D02*
D03*
X560000D02*
D03*
X610000D02*
D03*
X660000D02*
D03*
D18*
X3615000Y2458000D02*
D03*
Y2190000D02*
D03*
X3515000Y2458000D02*
D03*
Y2190000D02*
D03*
X3415000Y2458000D02*
D03*
Y2190000D02*
D03*
X3315000Y2458000D02*
D03*
Y2190000D02*
D03*
X3215000Y2458000D02*
D03*
Y2190000D02*
D03*
X3115000Y2458000D02*
D03*
Y2190000D02*
D03*
X3015000Y2458000D02*
D03*
Y2190000D02*
D03*
X2915000Y2458000D02*
D03*
Y2190000D02*
D03*
X2815000Y2458000D02*
D03*
Y2190000D02*
D03*
X2715000Y2458000D02*
D03*
Y2190000D02*
D03*
D19*
X1185000Y972560D02*
D03*
Y917440D02*
D03*
D20*
X1302440Y970000D02*
D03*
X1357560D02*
D03*
D21*
X3246221Y1030001D02*
D03*
Y1080001D02*
D03*
Y1130001D02*
D03*
Y1180001D02*
D03*
Y1230001D02*
D03*
Y1280001D02*
D03*
Y1330001D02*
D03*
X3023779Y1030001D02*
D03*
Y1080001D02*
D03*
Y1130001D02*
D03*
Y1180001D02*
D03*
Y1230001D02*
D03*
Y1280001D02*
D03*
Y1330001D02*
D03*
D25*
X388189Y2350000D02*
D03*
X544095D02*
D03*
X700000D02*
D03*
D26*
X2835000Y980000D02*
D03*
X2535000D02*
D03*
X2380000Y1400000D02*
D03*
X2680000D02*
D03*
X3555000Y1425000D02*
D03*
X3855000D02*
D03*
X3625000Y615000D02*
D03*
X3925000D02*
D03*
Y475000D02*
D03*
X3625000D02*
D03*
X1460000Y1575000D02*
D03*
Y1275000D02*
D03*
X1455000Y800000D02*
D03*
Y500000D02*
D03*
X1125000Y1575000D02*
D03*
Y1275000D02*
D03*
X1130000Y800000D02*
D03*
Y500000D02*
D03*
D27*
X540000Y700000D02*
D03*
D28*
X805000Y1065000D02*
D03*
X630000D02*
D03*
D29*
X805000Y965000D02*
D03*
Y865000D02*
D03*
X630000Y965000D02*
D03*
Y865000D02*
D03*
D30*
X755000Y155000D02*
D03*
X455000D02*
D03*
X195000Y640000D02*
D03*
Y340000D02*
D03*
X945000Y2375000D02*
D03*
Y2675000D02*
D03*
X1175000Y2375000D02*
D03*
Y2675000D02*
D03*
X760000Y1825000D02*
D03*
X460000D02*
D03*
X205000Y1405000D02*
D03*
Y1705000D02*
D03*
D31*
X3258150Y155000D02*
D03*
X3455000D02*
D03*
X3651850D02*
D03*
X3061300D02*
D03*
X2864450D02*
D03*
X2121850Y160000D02*
D03*
X1925000D02*
D03*
X1728150D02*
D03*
X2318700D02*
D03*
X2515550D02*
D03*
D32*
X529290Y1389290D02*
D03*
X670710D02*
D03*
Y1530710D02*
D03*
X529290D02*
D03*
X500000Y1460000D02*
D03*
X700000D02*
D03*
X600000Y1560000D02*
D03*
Y1360000D02*
D03*
D33*
X3900000Y100000D02*
D03*
Y2900000D02*
D03*
X100000Y100000D02*
D03*
Y2900000D02*
D03*
%TF.MD5,0f90cefc010fb04ae57e7ffc741c41c2*%
M02*
