%TF.GenerationSoftware,Altium Limited,Altium Designer,19.1.9 (167)*%
G04 Layer_Color=8421504*
%FSLAX26Y26*%
%MOIN*%
%TF.FileFunction,Paste,Top*%
%TF.Part,Single*%
G01*
G75*
%TA.AperFunction,SMDPad,CuDef*%
%ADD11R,0.035433X0.027559*%
%ADD12R,0.027559X0.035433*%
%ADD13R,0.033000X0.063000*%
%ADD14R,0.122000X0.063000*%
%ADD15C,0.067992*%
%ADD16R,0.280000X0.092992*%
%ADD17R,0.024000X0.061000*%
%ADD18R,0.052000X0.204000*%
%ADD19R,0.035433X0.031496*%
%ADD20R,0.031496X0.035433*%
G04:AMPARAMS|DCode=21|XSize=25.591mil|YSize=64.961mil|CornerRadius=1.919mil|HoleSize=0mil|Usage=FLASHONLY|Rotation=270.000|XOffset=0mil|YOffset=0mil|HoleType=Round|Shape=RoundedRectangle|*
%AMROUNDEDRECTD21*
21,1,0.025591,0.061122,0,0,270.0*
21,1,0.021752,0.064961,0,0,270.0*
1,1,0.003839,-0.030561,-0.010876*
1,1,0.003839,-0.030561,0.010876*
1,1,0.003839,0.030561,0.010876*
1,1,0.003839,0.030561,-0.010876*
%
%ADD21ROUNDEDRECTD21*%
D11*
X1495000Y915472D02*
D03*
Y974528D02*
D03*
X2180000Y670472D02*
D03*
Y729528D02*
D03*
X2055000Y724528D02*
D03*
Y665472D02*
D03*
X1920000Y724528D02*
D03*
Y665472D02*
D03*
X2697598Y1605591D02*
D03*
Y1554409D02*
D03*
X2772402Y1580000D02*
D03*
X3872402Y904409D02*
D03*
Y955591D02*
D03*
X3797598Y930000D02*
D03*
X3577402Y904409D02*
D03*
Y955591D02*
D03*
X3502598Y930000D02*
D03*
X3472598Y1610591D02*
D03*
Y1559409D02*
D03*
X3547402Y1585000D02*
D03*
X2832402Y729409D02*
D03*
Y780591D02*
D03*
X2757598Y755000D02*
D03*
D12*
X3514528Y1150000D02*
D03*
X3455472D02*
D03*
Y1295000D02*
D03*
X3514528D02*
D03*
X2735472Y1295000D02*
D03*
X2794528D02*
D03*
Y1150000D02*
D03*
X2735472D02*
D03*
X1074527Y970000D02*
D03*
X1015472D02*
D03*
D13*
X1939449Y984000D02*
D03*
X2030000D02*
D03*
X2120551D02*
D03*
D14*
X2030000Y1236000D02*
D03*
D15*
X290000Y980000D02*
D03*
D16*
Y1074016D02*
D03*
Y885984D02*
D03*
D17*
X660000Y611299D02*
D03*
X610000D02*
D03*
X560000D02*
D03*
X510000D02*
D03*
Y398701D02*
D03*
X560000D02*
D03*
X610000D02*
D03*
X660000D02*
D03*
D18*
X3615000Y2458000D02*
D03*
Y2190000D02*
D03*
X3515000Y2458000D02*
D03*
Y2190000D02*
D03*
X3415000Y2458000D02*
D03*
Y2190000D02*
D03*
X3315000Y2458000D02*
D03*
Y2190000D02*
D03*
X3215000Y2458000D02*
D03*
Y2190000D02*
D03*
X3115000Y2458000D02*
D03*
Y2190000D02*
D03*
X3015000Y2458000D02*
D03*
Y2190000D02*
D03*
X2915000Y2458000D02*
D03*
Y2190000D02*
D03*
X2815000Y2458000D02*
D03*
Y2190000D02*
D03*
X2715000Y2458000D02*
D03*
Y2190000D02*
D03*
D19*
X1185000Y972560D02*
D03*
Y917440D02*
D03*
D20*
X1302440Y970000D02*
D03*
X1357560D02*
D03*
D21*
X3246221Y1030001D02*
D03*
Y1080001D02*
D03*
Y1130001D02*
D03*
Y1180001D02*
D03*
Y1230001D02*
D03*
Y1280001D02*
D03*
Y1330001D02*
D03*
X3023779Y1030001D02*
D03*
Y1080001D02*
D03*
Y1130001D02*
D03*
Y1180001D02*
D03*
Y1230001D02*
D03*
Y1280001D02*
D03*
Y1330001D02*
D03*
%TF.MD5,029b78e0e09bc50b73bd0e3cf181e9d1*%
M02*
